<svg xmlns="http://www.w3.org/2000/svg" xmlns:xlink="http://www.w3.org/1999/xlink" width="50" zoomAndPan="magnify" viewBox="0 0 37.5 37.499999" height="50" preserveAspectRatio="xMidYMid meet" version="1.0"><defs><clipPath id="0909463b29"><path d="M 10.699219 5.378906 L 32.058594 5.378906 L 32.058594 25.382812 L 10.699219 25.382812 Z M 10.699219 5.378906 " clip-rule="nonzero"/></clipPath><clipPath id="2c84f4b799"><path d="M 4.675781 2.867188 L 28.5 2.867188 L 28.5 33.941406 L 4.675781 33.941406 Z M 4.675781 2.867188 " clip-rule="nonzero"/></clipPath></defs><g clip-path="url(#0909463b29)"><path fill="#000000" d="M 13.210938 15.585938 C 13.191406 15.785156 13.175781 15.980469 13.160156 16.164062 C 13.15625 16.253906 13.152344 16.347656 13.144531 16.433594 C 13.140625 16.523438 13.136719 16.609375 13.132812 16.691406 C 13.125 16.859375 13.121094 17.019531 13.117188 17.167969 C 13.113281 17.316406 13.113281 17.457031 13.109375 17.585938 C 13.109375 17.714844 13.113281 17.835938 13.113281 17.941406 C 13.113281 17.996094 13.113281 18.046875 13.117188 18.09375 C 13.117188 18.140625 13.117188 18.183594 13.121094 18.226562 C 13.121094 18.308594 13.125 18.378906 13.125 18.4375 C 13.128906 18.550781 13.132812 18.613281 13.132812 18.613281 C 13.132812 18.613281 13.140625 18.550781 13.160156 18.4375 C 13.171875 18.382812 13.183594 18.3125 13.195312 18.230469 C 13.203125 18.191406 13.210938 18.148438 13.21875 18.101562 C 13.230469 18.054688 13.238281 18.003906 13.25 17.953125 C 13.269531 17.847656 13.292969 17.734375 13.316406 17.609375 C 13.34375 17.484375 13.375 17.347656 13.40625 17.203125 C 13.4375 17.0625 13.476562 16.910156 13.515625 16.75 C 13.535156 16.667969 13.558594 16.585938 13.578125 16.503906 C 13.601562 16.417969 13.621094 16.332031 13.648438 16.246094 C 13.699219 16.074219 13.75 15.894531 13.808594 15.707031 C 13.839844 15.617188 13.867188 15.523438 13.898438 15.429688 C 13.929688 15.332031 13.964844 15.238281 13.996094 15.140625 C 14.132812 14.753906 14.289062 14.351562 14.46875 13.949219 C 14.46875 13.945312 14.46875 13.941406 14.472656 13.9375 C 14.722656 13.367188 15.09375 12.859375 15.558594 12.441406 C 17.546875 10.648438 19.769531 9.503906 21.449219 8.550781 C 21.417969 8.605469 21.390625 8.660156 21.363281 8.714844 C 21.320312 8.792969 21.28125 8.875 21.242188 8.957031 C 21.203125 9.035156 21.164062 9.113281 21.128906 9.1875 C 21.058594 9.339844 20.988281 9.484375 20.929688 9.621094 C 20.867188 9.757812 20.8125 9.886719 20.761719 10.003906 C 20.710938 10.121094 20.664062 10.230469 20.625 10.332031 C 20.605469 10.378906 20.585938 10.425781 20.566406 10.46875 C 20.550781 10.515625 20.53125 10.554688 20.519531 10.59375 C 20.488281 10.671875 20.460938 10.738281 20.441406 10.792969 C 20.402344 10.898438 20.378906 10.953125 20.378906 10.953125 C 20.378906 10.953125 20.410156 10.902344 20.472656 10.808594 C 20.503906 10.757812 20.542969 10.699219 20.585938 10.632812 C 20.609375 10.597656 20.632812 10.558594 20.660156 10.519531 C 20.6875 10.480469 20.714844 10.4375 20.746094 10.394531 C 20.804688 10.304688 20.867188 10.207031 20.941406 10.105469 C 21.015625 10 21.09375 9.886719 21.179688 9.765625 C 21.265625 9.648438 21.363281 9.523438 21.460938 9.390625 C 21.511719 9.324219 21.5625 9.257812 21.613281 9.1875 C 21.667969 9.121094 21.722656 9.050781 21.777344 8.980469 C 21.894531 8.839844 22.007812 8.691406 22.136719 8.546875 C 22.199219 8.472656 22.261719 8.398438 22.328125 8.324219 C 22.394531 8.25 22.460938 8.171875 22.53125 8.097656 L 22.535156 8.09375 C 22.757812 7.851562 23.019531 7.648438 23.3125 7.496094 C 26.09375 6.0625 29.210938 5.234375 32.328125 5.433594 C 29.4375 6.1875 27.433594 8.824219 26.148438 11.519531 C 25.730469 12.394531 25.363281 13.296875 24.996094 14.199219 C 24.808594 14.664062 24.457031 15.046875 24.003906 15.269531 L 23.996094 15.273438 C 23.90625 15.320312 23.8125 15.363281 23.722656 15.40625 C 23.632812 15.449219 23.542969 15.488281 23.457031 15.527344 C 23.28125 15.609375 23.105469 15.679688 22.941406 15.753906 C 22.855469 15.789062 22.773438 15.820312 22.695312 15.851562 C 22.613281 15.882812 22.535156 15.914062 22.457031 15.945312 C 22.304688 16.003906 22.15625 16.058594 22.019531 16.109375 C 21.878906 16.15625 21.75 16.203125 21.628906 16.246094 C 21.507812 16.285156 21.394531 16.320312 21.292969 16.355469 C 21.242188 16.371094 21.195312 16.386719 21.152344 16.402344 C 21.105469 16.414062 21.0625 16.425781 21.023438 16.4375 C 20.945312 16.464844 20.878906 16.484375 20.824219 16.5 C 20.714844 16.53125 20.65625 16.550781 20.65625 16.550781 C 20.65625 16.550781 20.714844 16.546875 20.828125 16.535156 C 20.886719 16.53125 20.957031 16.523438 21.039062 16.515625 C 21.082031 16.511719 21.125 16.507812 21.171875 16.503906 C 21.21875 16.5 21.269531 16.492188 21.324219 16.488281 C 21.429688 16.476562 21.546875 16.460938 21.675781 16.445312 C 21.804688 16.429688 21.941406 16.410156 22.089844 16.390625 C 22.238281 16.371094 22.394531 16.34375 22.558594 16.320312 C 22.644531 16.304688 22.726562 16.289062 22.816406 16.273438 C 22.902344 16.257812 22.992188 16.242188 23.082031 16.226562 C 23.261719 16.1875 23.453125 16.152344 23.648438 16.105469 C 23.746094 16.085938 23.84375 16.0625 23.945312 16.039062 C 24.046875 16.011719 24.148438 15.988281 24.25 15.960938 C 24.257812 15.960938 24.265625 15.957031 24.273438 15.953125 C 23.730469 17.230469 23.128906 18.472656 22.335938 19.613281 C 21.753906 20.449219 21.015625 21.21875 20.171875 21.910156 C 20.140625 21.921875 20.109375 21.929688 20.074219 21.941406 C 19.976562 21.972656 19.882812 22.003906 19.785156 22.03125 C 19.691406 22.0625 19.597656 22.089844 19.503906 22.117188 C 19.316406 22.171875 19.136719 22.21875 18.960938 22.265625 C 18.875 22.289062 18.789062 22.308594 18.703125 22.328125 C 18.621094 22.347656 18.539062 22.367188 18.457031 22.386719 C 18.296875 22.421875 18.144531 22.457031 18 22.484375 C 17.855469 22.511719 17.71875 22.539062 17.59375 22.5625 C 17.46875 22.585938 17.351562 22.605469 17.246094 22.625 C 17.195312 22.632812 17.144531 22.640625 17.097656 22.648438 C 17.050781 22.65625 17.007812 22.664062 16.964844 22.671875 C 16.886719 22.683594 16.816406 22.691406 16.757812 22.703125 C 16.644531 22.71875 16.585938 22.726562 16.585938 22.726562 C 16.585938 22.726562 16.648438 22.730469 16.761719 22.738281 C 16.816406 22.738281 16.886719 22.742188 16.972656 22.75 C 17.011719 22.75 17.058594 22.753906 17.105469 22.753906 C 17.152344 22.757812 17.203125 22.757812 17.253906 22.761719 C 17.363281 22.761719 17.480469 22.769531 17.609375 22.769531 C 17.738281 22.773438 17.878906 22.773438 18.027344 22.773438 C 18.175781 22.773438 18.335938 22.773438 18.503906 22.769531 C 18.589844 22.769531 18.675781 22.765625 18.761719 22.761719 C 18.851562 22.757812 18.941406 22.757812 19.03125 22.753906 C 16.828125 24.21875 14.164062 25.171875 11.742188 25.355469 C 11.742188 25.355469 16.898438 16.683594 21.0625 13.460938 C 21.0625 13.460938 16.015625 15.40625 11.082031 24.34375 C 10.320312 25.726562 10.921875 20.667969 11.347656 19.148438 C 11.800781 17.542969 12.472656 16.183594 13.277344 15.019531 C 13.265625 15.109375 13.253906 15.195312 13.242188 15.285156 C 13.230469 15.386719 13.222656 15.488281 13.210938 15.585938 " fill-opacity="1" fill-rule="nonzero"/></g><path fill="#000000" d="M 12.519531 21.910156 C 12.519531 21.910156 12.425781 22.042969 12.265625 22.28125 C 12.246094 22.308594 12.226562 22.339844 12.203125 22.375 C 12.191406 22.390625 12.179688 22.40625 12.167969 22.425781 C 12.164062 22.433594 12.15625 22.441406 12.152344 22.449219 C 12.144531 22.457031 12.140625 22.46875 12.136719 22.476562 C 12.089844 22.546875 12.042969 22.625 11.992188 22.703125 C 11.941406 22.785156 11.886719 22.875 11.828125 22.964844 C 11.773438 23.058594 11.714844 23.160156 11.65625 23.261719 C 11.625 23.316406 11.59375 23.367188 11.5625 23.421875 C 11.535156 23.476562 11.5 23.53125 11.472656 23.589844 C 11.410156 23.703125 11.347656 23.824219 11.285156 23.945312 C 11.25 24.007812 11.21875 24.066406 11.1875 24.132812 C 11.15625 24.195312 11.125 24.261719 11.09375 24.324219 C 11.0625 24.390625 11.03125 24.457031 11 24.523438 C 10.984375 24.558594 10.964844 24.589844 10.949219 24.625 C 10.933594 24.660156 10.917969 24.691406 10.902344 24.726562 C 10.785156 25.003906 10.652344 25.289062 10.542969 25.585938 C 10.421875 25.878906 10.320312 26.1875 10.214844 26.492188 C 10.121094 26.800781 10.019531 27.109375 9.941406 27.417969 C 9.851562 27.722656 9.789062 28.03125 9.71875 28.328125 C 9.710938 28.363281 9.703125 28.402344 9.695312 28.441406 C 9.6875 28.476562 9.683594 28.511719 9.675781 28.550781 C 9.660156 28.625 9.648438 28.695312 9.632812 28.769531 C 9.621094 28.839844 9.605469 28.910156 9.59375 28.980469 C 9.578125 29.050781 9.570312 29.121094 9.558594 29.191406 C 9.539062 29.332031 9.519531 29.464844 9.5 29.59375 C 9.488281 29.660156 9.480469 29.722656 9.472656 29.789062 C 9.46875 29.851562 9.460938 29.914062 9.453125 29.972656 C 9.4375 30.09375 9.425781 30.210938 9.414062 30.320312 C 9.40625 30.433594 9.398438 30.539062 9.390625 30.636719 C 9.382812 30.738281 9.375 30.828125 9.367188 30.914062 C 9.363281 31 9.363281 31.082031 9.359375 31.152344 C 9.347656 31.4375 9.339844 31.601562 9.339844 31.601562 C 9.339844 31.601562 9.335938 31.4375 9.324219 31.152344 C 9.320312 31.078125 9.316406 31 9.3125 30.914062 C 9.3125 30.828125 9.3125 30.734375 9.3125 30.636719 C 9.3125 30.535156 9.3125 30.429688 9.3125 30.316406 C 9.316406 30.203125 9.320312 30.085938 9.324219 29.964844 C 9.324219 29.902344 9.328125 29.839844 9.332031 29.773438 C 9.332031 29.710938 9.332031 29.644531 9.339844 29.578125 C 9.347656 29.445312 9.359375 29.308594 9.367188 29.167969 C 9.375 29.097656 9.378906 29.027344 9.386719 28.953125 C 9.394531 28.882812 9.402344 28.808594 9.410156 28.734375 C 9.417969 28.664062 9.425781 28.585938 9.433594 28.511719 C 9.4375 28.472656 9.441406 28.4375 9.445312 28.398438 C 9.449219 28.359375 9.453125 28.320312 9.460938 28.285156 C 9.507812 27.980469 9.546875 27.660156 9.613281 27.34375 C 9.667969 27.023438 9.746094 26.703125 9.816406 26.378906 C 9.902344 26.058594 9.980469 25.734375 10.078125 25.425781 C 10.167969 25.109375 10.277344 24.808594 10.378906 24.511719 C 10.390625 24.476562 10.40625 24.441406 10.417969 24.40625 C 10.433594 24.367188 10.445312 24.332031 10.460938 24.296875 C 10.488281 24.226562 10.515625 24.15625 10.542969 24.085938 C 10.570312 24.015625 10.597656 23.945312 10.621094 23.878906 C 10.648438 23.808594 10.679688 23.742188 10.707031 23.675781 C 10.765625 23.546875 10.820312 23.417969 10.871094 23.292969 C 10.898438 23.230469 10.929688 23.171875 10.957031 23.113281 C 10.984375 23.054688 11.011719 22.996094 11.039062 22.941406 C 11.089844 22.828125 11.140625 22.71875 11.191406 22.617188 C 11.246094 22.511719 11.296875 22.417969 11.34375 22.324219 C 11.390625 22.234375 11.4375 22.148438 11.476562 22.070312 C 11.484375 22.058594 11.488281 22.050781 11.492188 22.039062 C 11.496094 22.03125 11.503906 22.023438 11.507812 22.011719 C 11.519531 21.996094 11.527344 21.976562 11.539062 21.960938 C 11.558594 21.925781 11.578125 21.894531 11.59375 21.863281 C 11.734375 21.613281 11.816406 21.472656 11.816406 21.472656 L 12.519531 21.910156 " fill-opacity="1" fill-rule="nonzero"/><path fill="#000000" d="M 9.519531 31.8125 C 9.519531 31.8125 9.554688 31.765625 9.625 31.679688 C 9.6875 31.589844 9.792969 31.464844 9.9375 31.3125 C 9.976562 31.277344 10.015625 31.242188 10.058594 31.199219 C 10.101562 31.164062 10.140625 31.117188 10.191406 31.078125 C 10.289062 31 10.394531 30.910156 10.515625 30.832031 C 10.632812 30.746094 10.769531 30.667969 10.910156 30.585938 C 11.058594 30.511719 11.210938 30.429688 11.378906 30.367188 C 11.714844 30.230469 12.097656 30.125 12.511719 30.074219 C 12.921875 30.027344 13.371094 30.03125 13.820312 30.121094 C 13.875 30.132812 13.933594 30.144531 13.988281 30.15625 L 14.03125 30.164062 L 14.074219 30.175781 L 14.15625 30.199219 C 14.265625 30.226562 14.382812 30.265625 14.488281 30.304688 C 14.710938 30.382812 14.925781 30.472656 15.140625 30.574219 C 15.566406 30.773438 15.980469 31 16.402344 31.195312 L 16.558594 31.265625 L 16.886719 31.398438 C 16.9375 31.421875 16.992188 31.445312 17.046875 31.460938 C 17.15625 31.5 17.261719 31.535156 17.371094 31.574219 C 17.480469 31.609375 17.589844 31.636719 17.699219 31.671875 C 18.140625 31.789062 18.582031 31.882812 19.015625 31.929688 C 19.066406 31.9375 19.121094 31.941406 19.175781 31.949219 C 19.230469 31.953125 19.28125 31.957031 19.335938 31.960938 C 19.441406 31.96875 19.546875 31.976562 19.652344 31.984375 C 19.863281 31.988281 20.070312 32 20.269531 31.988281 C 20.367188 31.984375 20.46875 31.984375 20.566406 31.980469 C 20.660156 31.972656 20.757812 31.964844 20.851562 31.957031 C 20.898438 31.953125 20.945312 31.949219 20.992188 31.949219 C 21.039062 31.941406 21.082031 31.9375 21.128906 31.929688 C 21.21875 31.917969 21.308594 31.90625 21.394531 31.898438 C 21.566406 31.871094 21.730469 31.835938 21.890625 31.8125 C 22.046875 31.773438 22.195312 31.742188 22.332031 31.710938 C 22.472656 31.671875 22.597656 31.632812 22.71875 31.597656 C 22.839844 31.566406 22.945312 31.523438 23.042969 31.492188 C 23.238281 31.429688 23.386719 31.363281 23.492188 31.324219 C 23.59375 31.285156 23.648438 31.261719 23.648438 31.261719 C 23.648438 31.261719 23.597656 31.289062 23.496094 31.339844 C 23.398438 31.390625 23.257812 31.472656 23.066406 31.550781 C 22.96875 31.589844 22.867188 31.644531 22.75 31.6875 C 22.632812 31.730469 22.503906 31.777344 22.367188 31.824219 C 22.230469 31.867188 22.082031 31.914062 21.925781 31.960938 C 21.765625 31.996094 21.601562 32.039062 21.425781 32.078125 C 21.335938 32.09375 21.246094 32.109375 21.15625 32.125 C 21.109375 32.132812 21.0625 32.144531 21.015625 32.152344 C 20.96875 32.15625 20.921875 32.164062 20.875 32.167969 C 20.777344 32.179688 20.679688 32.191406 20.582031 32.207031 C 20.484375 32.214844 20.382812 32.21875 20.277344 32.226562 C 20.074219 32.246094 19.863281 32.238281 19.644531 32.246094 C 19.539062 32.242188 19.429688 32.238281 19.316406 32.230469 C 19.261719 32.230469 19.207031 32.226562 19.152344 32.222656 C 19.097656 32.21875 19.039062 32.214844 18.984375 32.207031 C 18.535156 32.167969 18.078125 32.089844 17.621094 31.964844 C 17.503906 31.933594 17.390625 31.90625 17.277344 31.867188 C 17.164062 31.832031 17.046875 31.792969 16.933594 31.753906 C 16.875 31.734375 16.820312 31.710938 16.765625 31.691406 L 16.4375 31.558594 L 16.269531 31.480469 C 15.835938 31.277344 15.421875 31.050781 15.007812 30.851562 C 14.59375 30.65625 14.183594 30.480469 13.761719 30.394531 C 13.347656 30.300781 12.925781 30.277344 12.535156 30.3125 C 12.140625 30.34375 11.773438 30.425781 11.445312 30.539062 C 11.277344 30.589844 11.125 30.660156 10.980469 30.722656 C 10.839844 30.792969 10.703125 30.859375 10.582031 30.933594 C 10.457031 31.003906 10.351562 31.082031 10.25 31.152344 C 10.195312 31.183594 10.152344 31.222656 10.109375 31.257812 C 10.0625 31.292969 10.023438 31.328125 9.980469 31.359375 C 9.828125 31.496094 9.710938 31.605469 9.636719 31.691406 C 9.5625 31.769531 9.519531 31.8125 9.519531 31.8125 " fill-opacity="1" fill-rule="nonzero"/><g clip-path="url(#2c84f4b799)"><path fill="#000000" d="M 27.730469 9.617188 L 27.730469 33.375 L 5.4375 33.375 L 5.4375 3.628906 L 27.730469 3.628906 L 27.730469 5.390625 C 27.984375 5.332031 28.242188 5.277344 28.496094 5.230469 L 28.496094 2.867188 L 4.675781 2.867188 L 4.675781 34.140625 L 28.496094 34.140625 L 28.496094 8.585938 C 28.21875 8.917969 27.964844 9.265625 27.730469 9.617188 " fill-opacity="1" fill-rule="nonzero"/></g></svg>